SplineFontDB: 3.2
FontName: Untitled2
FullName: Untitled2
FamilyName: Untitled2
Weight: Regular
Copyright: Copyright (c) 2023, menadue
UComments: "2023-12-26: Created with FontForge (http://fontforge.org)"
Version: 001.000
ItalicAngle: 0
UnderlinePosition: -100
UnderlineWidth: 50
Ascent: 800
Descent: 200
InvalidEm: 0
LayerCount: 2
Layer: 0 0 "Back" 1
Layer: 1 0 "Fore" 0
XUID: [1021 152 -1633089649 9226711]
OS2Version: 0
OS2_WeightWidthSlopeOnly: 0
OS2_UseTypoMetrics: 1
CreationTime: 1703634389
ModificationTime: 1703634441
OS2TypoAscent: 0
OS2TypoAOffset: 1
OS2TypoDescent: 0
OS2TypoDOffset: 1
OS2TypoLinegap: 0
OS2WinAscent: 0
OS2WinAOffset: 1
OS2WinDescent: 0
OS2WinDOffset: 1
HheadAscent: 0
HheadAOffset: 1
HheadDescent: 0
HheadDOffset: 1
OS2Vendor: 'PfEd'
DEI: 91125
Encoding: ISO8859-1
UnicodeInterp: none
NameList: AGL For New Fonts
DisplaySize: -48
AntiAlias: 1
FitToEm: 0
WinInfo: 26 26 4
BeginChars: 256 63

StartChar: plus
Encoding: 43 43 0
Width: 875
Flags: HW
LayerCount: 2
Fore
SplineSet
375 0 m 1
 375 250 l 1
 125 250 l 1
 125 375 l 1
 375 375 l 1
 375 625 l 1
 500 625 l 1
 500 375 l 1
 750 375 l 1
 750 250 l 1
 500 250 l 1
 500 0 l 1
 375 0 l 1
EndSplineSet
EndChar

StartChar: exclam
Encoding: 33 33 1
Width: 375
Flags: HW
LayerCount: 2
Fore
SplineSet
125 250 m 1
 125 625 l 1
 250 625 l 1
 250 250 l 1
 125 250 l 1
125 0 m 1
 125 125 l 1
 250 125 l 1
 250 0 l 1
 125 0 l 1
EndSplineSet
EndChar

StartChar: quotedbl
Encoding: 34 34 2
Width: 625
Flags: HW
LayerCount: 2
Fore
SplineSet
375 375 m 1
 375 625 l 1
 500 625 l 1
 500 375 l 1
 375 375 l 1
125 375 m 1
 125 625 l 1
 250 625 l 1
 250 375 l 1
 125 375 l 1
EndSplineSet
EndChar

StartChar: numbersign
Encoding: 35 35 3
Width: 875
Flags: HW
LayerCount: 2
Fore
SplineSet
250 0 m 1
 250 125 l 1
 125 125 l 1
 125 250 l 1
 250 250 l 1
 250 375 l 1
 125 375 l 1
 125 500 l 1
 250 500 l 1
 250 625 l 1
 375 625 l 1
 375 500 l 1
 500 500 l 1
 500 625 l 1
 625 625 l 1
 625 500 l 1
 750 500 l 1
 750 375 l 1
 625 375 l 1
 625 250 l 1
 750 250 l 1
 750 125 l 1
 625 125 l 1
 625 0 l 1
 500 0 l 1
 500 125 l 1
 375 125 l 1
 375 0 l 1
 250 0 l 1
375 250 m 1
 500 250 l 1
 500 375 l 1
 375 375 l 1
 375 250 l 1
EndSplineSet
EndChar

StartChar: dollar
Encoding: 36 36 4
Width: 750
Flags: HW
LayerCount: 2
Fore
SplineSet
250 500 m 1
 250 625 l 1
 375 625 l 1
 375 750 l 1
 500 750 l 1
 500 625 l 1
 625 625 l 1
 625 500 l 1
 250 500 l 1
250 -125 m 1
 250 0 l 1
 125 0 l 1
 125 125 l 1
 500 125 l 1
 500 250 l 1
 250 250 l 1
 250 375 l 1
 125 375 l 1
 125 500 l 1
 250 500 l 1
 250 375 l 1
 500 375 l 1
 500 250 l 1
 625 250 l 1
 625 125 l 1
 500 125 l 1
 500 0 l 1
 375 0 l 1
 375 -125 l 1
 250 -125 l 1
EndSplineSet
EndChar

StartChar: percent
Encoding: 37 37 5
Width: 875
Flags: HW
LayerCount: 2
Fore
SplineSet
500 0 m 1
 500 250 l 1
 375 250 l 1
 375 375 l 1
 125 375 l 1
 125 625 l 1
 375 625 l 1
 375 375 l 1
 500 375 l 1
 500 250 l 1
 750 250 l 1
 750 0 l 1
 500 0 l 1
500 375 m 1
 500 625 l 1
 625 625 l 1
 625 375 l 1
 500 375 l 1
250 0 m 1
 250 250 l 1
 375 250 l 1
 375 0 l 1
 250 0 l 1
EndSplineSet
EndChar

StartChar: ampersand
Encoding: 38 38 6
Width: 750
Flags: HW
LayerCount: 2
Fore
SplineSet
375 -125 m 1
 375 0 l 1
 250 0 l 1
 250 125 l 1
 125 125 l 1
 125 250 l 1
 250 250 l 1
 250 375 l 1
 125 375 l 1
 125 500 l 1
 250 500 l 1
 250 625 l 1
 375 625 l 1
 375 750 l 1
 500 750 l 1
 500 625 l 1
 625 625 l 1
 625 500 l 1
 250 500 l 1
 250 375 l 1
 500 375 l 1
 500 250 l 1
 250 250 l 1
 250 125 l 1
 625 125 l 1
 625 0 l 1
 500 0 l 1
 500 -125 l 1
 375 -125 l 1
EndSplineSet
EndChar

StartChar: quotesingle
Encoding: 39 39 7
Width: 375
Flags: HW
LayerCount: 2
Fore
SplineSet
125 375 m 1
 125 625 l 1
 250 625 l 1
 250 375 l 1
 125 375 l 1
EndSplineSet
EndChar

StartChar: parenleft
Encoding: 40 40 8
Width: 500
Flags: HW
LayerCount: 2
Fore
SplineSet
250 500 m 1
 250 625 l 1
 375 625 l 1
 375 500 l 1
 250 500 l 1
250 0 m 1
 250 125 l 1
 125 125 l 1
 125 500 l 1
 250 500 l 1
 250 125 l 1
 375 125 l 1
 375 0 l 1
 250 0 l 1
EndSplineSet
EndChar

StartChar: parenright
Encoding: 41 41 9
Width: 500
Flags: HW
LayerCount: 2
Fore
SplineSet
250 125 m 1
 250 500 l 1
 125 500 l 1
 125 625 l 1
 250 625 l 1
 250 500 l 1
 375 500 l 1
 375 125 l 1
 250 125 l 1
125 0 m 1
 125 125 l 1
 250 125 l 1
 250 0 l 1
 125 0 l 1
EndSplineSet
EndChar

StartChar: asterisk
Encoding: 42 42 10
Width: 875
Flags: HW
LayerCount: 2
Fore
SplineSet
375 0 m 1
 375 250 l 1
 250 250 l 1
 250 125 l 1
 125 125 l 1
 125 250 l 1
 250 250 l 1
 250 375 l 1
 125 375 l 1
 125 500 l 1
 250 500 l 1
 250 375 l 1
 375 375 l 1
 375 625 l 1
 500 625 l 1
 500 375 l 1
 625 375 l 1
 625 250 l 1
 750 250 l 1
 750 125 l 1
 625 125 l 1
 625 250 l 1
 500 250 l 1
 500 0 l 1
 375 0 l 1
625 375 m 1
 625 500 l 1
 750 500 l 1
 750 375 l 1
 625 375 l 1
EndSplineSet
EndChar

StartChar: comma
Encoding: 44 44 11
Width: 500
Flags: HW
LayerCount: 2
Fore
SplineSet
250 0 m 1
 250 125 l 1
 375 125 l 1
 375 0 l 1
 250 0 l 1
125 -125 m 1
 125 0 l 1
 250 0 l 1
 250 -125 l 1
 125 -125 l 1
EndSplineSet
EndChar

StartChar: hyphen
Encoding: 45 45 12
Width: 625
Flags: HW
LayerCount: 2
Fore
SplineSet
125 250 m 1
 125 375 l 1
 500 375 l 1
 500 250 l 1
 125 250 l 1
EndSplineSet
EndChar

StartChar: period
Encoding: 46 46 13
Width: 375
Flags: HW
LayerCount: 2
Fore
SplineSet
125 0 m 1
 125 125 l 1
 250 125 l 1
 250 0 l 1
 125 0 l 1
EndSplineSet
EndChar

StartChar: slash
Encoding: 47 47 14
Width: 625
Flags: HW
LayerCount: 2
Fore
SplineSet
375 375 m 1
 375 625 l 1
 500 625 l 1
 500 375 l 1
 375 375 l 1
250 250 m 1
 250 375 l 1
 375 375 l 1
 375 250 l 1
 250 250 l 1
125 0 m 1
 125 250 l 1
 250 250 l 1
 250 0 l 1
 125 0 l 1
EndSplineSet
EndChar

StartChar: zero
Encoding: 48 48 15
Width: 750
Flags: HW
LayerCount: 2
Fore
SplineSet
250 0 m 1
 250 125 l 1
 125 125 l 1
 125 500 l 1
 250 500 l 1
 250 625 l 1
 500 625 l 1
 500 500 l 1
 625 500 l 1
 625 125 l 1
 500 125 l 1
 500 0 l 1
 250 0 l 1
250 130 m 1
 500 130 l 1
 500 495 l 1
 250 495 l 1
 250 130 l 1
EndSplineSet
EndChar

StartChar: one
Encoding: 49 49 16
Width: 625
Flags: HW
LayerCount: 2
Fore
SplineSet
125 0 m 1
 125 125 l 1
 250 125 l 1
 250 500 l 1
 125 500 l 1
 125 625 l 1
 375 625 l 1
 375 125 l 1
 500 125 l 1
 500 0 l 1
 125 0 l 1
EndSplineSet
EndChar

StartChar: two
Encoding: 50 50 17
Width: 750
Flags: HW
LayerCount: 2
Fore
SplineSet
500 375 m 1
 500 500 l 1
 125 500 l 1
 125 625 l 1
 500 625 l 1
 500 500 l 1
 625 500 l 1
 625 375 l 1
 500 375 l 1
250 250 m 1
 250 375 l 1
 500 375 l 1
 500 250 l 1
 250 250 l 1
125 0 m 1
 125 250 l 1
 250 250 l 1
 250 125 l 1
 625 125 l 1
 625 0 l 1
 125 0 l 1
EndSplineSet
EndChar

StartChar: three
Encoding: 51 51 18
Width: 750
Flags: HW
LayerCount: 2
Fore
SplineSet
500 375 m 1
 500 500 l 1
 125 500 l 1
 125 625 l 1
 500 625 l 1
 500 500 l 1
 625 500 l 1
 625 375 l 1
 500 375 l 1
500 125 m 1
 500 250 l 1
 250 250 l 1
 250 375 l 1
 500 375 l 1
 500 250 l 1
 625 250 l 1
 625 125 l 1
 500 125 l 1
125 0 m 1
 125 125 l 1
 500 125 l 1
 500 0 l 1
 125 0 l 1
EndSplineSet
EndChar

StartChar: four
Encoding: 52 52 19
Width: 750
Flags: HW
LayerCount: 2
Fore
SplineSet
375 0 m 1
 375 250 l 1
 125 250 l 1
 125 625 l 1
 250 625 l 1
 250 375 l 1
 375 375 l 1
 375 625 l 1
 500 625 l 1
 500 375 l 1
 625 375 l 1
 625 250 l 1
 500 250 l 1
 500 0 l 1
 375 0 l 1
EndSplineSet
EndChar

StartChar: five
Encoding: 53 53 20
Width: 750
Flags: HW
LayerCount: 2
Fore
SplineSet
500 125 m 1
 500 250 l 1
 125 250 l 1
 125 625 l 1
 625 625 l 1
 625 500 l 1
 250 500 l 1
 250 375 l 1
 500 375 l 1
 500 250 l 1
 625 250 l 1
 625 125 l 1
 500 125 l 1
125 0 m 1
 125 125 l 1
 500 125 l 1
 500 0 l 1
 125 0 l 1
EndSplineSet
EndChar

StartChar: six
Encoding: 54 54 21
Width: 750
Flags: HW
LayerCount: 2
Fore
SplineSet
250 0 m 1
 250 125 l 1
 125 125 l 1
 125 500 l 1
 250 500 l 1
 250 625 l 1
 500 625 l 1
 500 500 l 1
 250 500 l 1
 250 375 l 1
 500 375 l 1
 500 250 l 1
 625 250 l 1
 625 125 l 1
 500 125 l 1
 500 0 l 1
 250 0 l 1
250 130 m 1
 500 130 l 1
 500 245 l 1
 250 245 l 1
 250 130 l 1
EndSplineSet
EndChar

StartChar: seven
Encoding: 55 55 22
Width: 750
Flags: HW
LayerCount: 2
Fore
SplineSet
250 0 m 1
 250 250 l 1
 375 250 l 1
 375 375 l 1
 500 375 l 1
 500 500 l 1
 125 500 l 1
 125 625 l 1
 625 625 l 1
 625 375 l 1
 500 375 l 1
 500 250 l 1
 375 250 l 1
 375 0 l 1
 250 0 l 1
EndSplineSet
EndChar

StartChar: eight
Encoding: 56 56 23
Width: 750
Flags: HW
LayerCount: 2
Fore
SplineSet
250 0 m 1
 250 125 l 1
 125 125 l 1
 125 250 l 1
 250 250 l 1
 250 375 l 1
 125 375 l 1
 125 500 l 1
 250 500 l 1
 250 625 l 1
 500 625 l 1
 500 500 l 1
 625 500 l 1
 625 375 l 1
 500 375 l 1
 500 250 l 1
 625 250 l 1
 625 125 l 1
 500 125 l 1
 500 0 l 1
 250 0 l 1
250 380 m 1
 500 380 l 1
 500 495 l 1
 250 495 l 1
 250 380 l 1
250 130 m 1
 500 130 l 1
 500 245 l 1
 250 245 l 1
 250 130 l 1
EndSplineSet
EndChar

StartChar: nine
Encoding: 57 57 24
Width: 750
Flags: HW
LayerCount: 2
Fore
SplineSet
250 0 m 1
 250 125 l 1
 500 125 l 1
 500 250 l 1
 250 250 l 1
 250 375 l 1
 125 375 l 1
 125 500 l 1
 250 500 l 1
 250 625 l 1
 500 625 l 1
 500 500 l 1
 625 500 l 1
 625 125 l 1
 500 125 l 1
 500 0 l 1
 250 0 l 1
250 380 m 1
 500 380 l 1
 500 495 l 1
 250 495 l 1
 250 380 l 1
EndSplineSet
EndChar

StartChar: colon
Encoding: 58 58 25
Width: 375
Flags: HW
LayerCount: 2
Fore
SplineSet
125 375 m 1
 125 500 l 1
 250 500 l 1
 250 375 l 1
 125 375 l 1
125 125 m 1
 125 250 l 1
 250 250 l 1
 250 125 l 1
 125 125 l 1
EndSplineSet
EndChar

StartChar: semicolon
Encoding: 59 59 26
Width: 500
Flags: HW
LayerCount: 2
Fore
SplineSet
250 375 m 1
 250 500 l 1
 375 500 l 1
 375 375 l 1
 250 375 l 1
250 125 m 1
 250 250 l 1
 375 250 l 1
 375 125 l 1
 250 125 l 1
125 0 m 1
 125 125 l 1
 250 125 l 1
 250 0 l 1
 125 0 l 1
EndSplineSet
EndChar

StartChar: less
Encoding: 60 60 27
Width: 625
Flags: HW
LayerCount: 2
Fore
SplineSet
375 500 m 1
 375 625 l 1
 500 625 l 1
 500 500 l 1
 375 500 l 1
250 375 m 1
 250 500 l 1
 375 500 l 1
 375 375 l 1
 250 375 l 1
375 0 m 1
 375 125 l 1
 250 125 l 1
 250 250 l 1
 125 250 l 1
 125 375 l 1
 250 375 l 1
 250 250 l 1
 375 250 l 1
 375 125 l 1
 500 125 l 1
 500 0 l 1
 375 0 l 1
EndSplineSet
EndChar

StartChar: equal
Encoding: 61 61 28
Width: 625
Flags: HW
LayerCount: 2
Fore
SplineSet
125 375 m 1
 125 500 l 1
 500 500 l 1
 500 375 l 1
 125 375 l 1
125 125 m 1
 125 250 l 1
 500 250 l 1
 500 125 l 1
 125 125 l 1
EndSplineSet
EndChar

StartChar: greater
Encoding: 62 62 29
Width: 625
Flags: HW
LayerCount: 2
Fore
SplineSet
375 250 m 1
 375 375 l 1
 250 375 l 1
 250 500 l 1
 125 500 l 1
 125 625 l 1
 250 625 l 1
 250 500 l 1
 375 500 l 1
 375 375 l 1
 500 375 l 1
 500 250 l 1
 375 250 l 1
250 125 m 1
 250 250 l 1
 375 250 l 1
 375 125 l 1
 250 125 l 1
125 0 m 1
 125 125 l 1
 250 125 l 1
 250 0 l 1
 125 0 l 1
EndSplineSet
EndChar

StartChar: question
Encoding: 63 63 30
Width: 750
Flags: HW
LayerCount: 2
Fore
SplineSet
500 375 m 1
 500 500 l 1
 125 500 l 1
 125 625 l 1
 500 625 l 1
 500 500 l 1
 625 500 l 1
 625 375 l 1
 500 375 l 1
250 250 m 1
 250 375 l 1
 500 375 l 1
 500 250 l 1
 250 250 l 1
250 0 m 1
 250 125 l 1
 375 125 l 1
 375 0 l 1
 250 0 l 1
EndSplineSet
EndChar

StartChar: at
Encoding: 64 64 31
Width: 875
Flags: HW
LayerCount: 2
Fore
SplineSet
375 250 m 1
 375 500 l 1
 250 500 l 1
 250 625 l 1
 625 625 l 1
 625 500 l 1
 750 500 l 1
 750 375 l 1
 625 375 l 1
 625 250 l 1
 375 250 l 1
250 0 m 1
 250 125 l 1
 125 125 l 1
 125 500 l 1
 250 500 l 1
 250 125 l 1
 625 125 l 1
 625 0 l 1
 250 0 l 1
500 375 m 1
 620 375 l 1
 620 500 l 1
 500 500 l 1
 500 375 l 1
EndSplineSet
EndChar

StartChar: A
Encoding: 65 65 32
Width: 750
Flags: HW
LayerCount: 2
Fore
SplineSet
125 0 m 1
 125 500 l 1
 250 500 l 1
 250 625 l 1
 500 625 l 1
 500 500 l 1
 625 500 l 1
 625 0 l 1
 500 0 l 1
 500 250 l 1
 250 250 l 1
 250 0 l 1
 125 0 l 1
250 375 m 1
 500 375 l 1
 500 495 l 1
 250 495 l 1
 250 375 l 1
EndSplineSet
EndChar

StartChar: B
Encoding: 66 66 33
Width: 750
Flags: HW
LayerCount: 2
Fore
SplineSet
125 0 m 1
 125 625 l 1
 500 625 l 1
 500 500 l 1
 625 500 l 1
 625 125 l 1
 500 125 l 1
 500 0 l 1
 125 0 l 1
250 375 m 1
 495 375 l 1
 495 500 l 1
 250 500 l 1
 250 375 l 1
250 125 m 1
 495 125 l 1
 495 250 l 1
 250 250 l 1
 250 125 l 1
EndSplineSet
EndChar

StartChar: C
Encoding: 67 67 34
Width: 750
Flags: HW
LayerCount: 2
Fore
SplineSet
500 375 m 1
 500 500 l 1
 250 500 l 1
 250 625 l 1
 500 625 l 1
 500 500 l 1
 625 500 l 1
 625 375 l 1
 500 375 l 1
250 0 m 1
 250 125 l 1
 125 125 l 1
 125 500 l 1
 250 500 l 1
 250 125 l 1
 500 125 l 1
 500 0 l 1
 250 0 l 1
500 125 m 1
 500 250 l 1
 625 250 l 1
 625 125 l 1
 500 125 l 1
EndSplineSet
EndChar

StartChar: D
Encoding: 68 68 35
Width: 750
Flags: HW
LayerCount: 2
Fore
SplineSet
125 0 m 1
 125 625 l 1
 500 625 l 1
 500 500 l 1
 625 500 l 1
 625 125 l 1
 500 125 l 1
 500 0 l 1
 125 0 l 1
250 125 m 1
 495 125 l 1
 495 500 l 1
 250 500 l 1
 250 125 l 1
EndSplineSet
EndChar

StartChar: E
Encoding: 69 69 36
Width: 625
Flags: HW
LayerCount: 2
Fore
SplineSet
125 0 m 1
 125 625 l 1
 500 625 l 1
 500 500 l 1
 250 500 l 1
 250 375 l 1
 500 375 l 1
 500 250 l 1
 250 250 l 1
 250 125 l 1
 500 125 l 1
 500 0 l 1
 125 0 l 1
EndSplineSet
EndChar

StartChar: F
Encoding: 70 70 37
Width: 625
Flags: HW
LayerCount: 2
Fore
SplineSet
125 0 m 1
 125 625 l 1
 500 625 l 1
 500 500 l 1
 250 500 l 1
 250 375 l 1
 500 375 l 1
 500 250 l 1
 250 250 l 1
 250 0 l 1
 125 0 l 1
EndSplineSet
EndChar

StartChar: G
Encoding: 71 71 38
Width: 750
Flags: HW
LayerCount: 2
Fore
SplineSet
250 500 m 1
 250 625 l 1
 625 625 l 1
 625 500 l 1
 250 500 l 1
125 125 m 1
 125 500 l 1
 250 500 l 1
 250 125 l 1
 125 125 l 1
500 125 m 1
 500 250 l 1
 375 250 l 1
 375 375 l 1
 625 375 l 1
 625 125 l 1
 500 125 l 1
250 0 m 1
 250 125 l 1
 500 125 l 1
 500 0 l 1
 250 0 l 1
EndSplineSet
EndChar

StartChar: H
Encoding: 72 72 39
Width: 750
Flags: HW
LayerCount: 2
Fore
SplineSet
125 0 m 1
 125 625 l 1
 250 625 l 1
 250 375 l 1
 500 375 l 1
 500 625 l 1
 625 625 l 1
 625 0 l 1
 500 0 l 1
 500 250 l 1
 250 250 l 1
 250 0 l 1
 125 0 l 1
EndSplineSet
EndChar

StartChar: I
Encoding: 73 73 40
Width: 375
Flags: HW
LayerCount: 2
Fore
SplineSet
125 0 m 1
 125 625 l 1
 250 625 l 1
 250 0 l 1
 125 0 l 1
EndSplineSet
EndChar

StartChar: J
Encoding: 74 74 41
Width: 750
Flags: HW
LayerCount: 2
Fore
SplineSet
500 125 m 1
 500 625 l 1
 625 625 l 1
 625 125 l 1
 500 125 l 1
250 0 m 1
 250 125 l 1
 125 125 l 1
 125 250 l 1
 250 250 l 1
 250 125 l 1
 500 125 l 1
 500 0 l 1
 250 0 l 1
EndSplineSet
EndChar

StartChar: K
Encoding: 75 75 42
Width: 750
Flags: HW
LayerCount: 2
Fore
SplineSet
125 0 m 1
 125 625 l 1
 250 625 l 1
 250 375 l 1
 375 375 l 1
 375 250 l 1
 500 250 l 1
 500 125 l 1
 625 125 l 1
 625 0 l 1
 500 0 l 1
 500 125 l 1
 375 125 l 1
 375 250 l 1
 250 250 l 1
 250 0 l 1
 125 0 l 1
500 500 m 1
 500 625 l 1
 625 625 l 1
 625 500 l 1
 500 500 l 1
375 375 m 1
 375 500 l 1
 500 500 l 1
 500 375 l 1
 375 375 l 1
EndSplineSet
EndChar

StartChar: L
Encoding: 76 76 43
Width: 625
Flags: HW
LayerCount: 2
Fore
SplineSet
125 0 m 1
 125 625 l 1
 250 625 l 1
 250 125 l 1
 500 125 l 1
 500 0 l 1
 125 0 l 1
EndSplineSet
EndChar

StartChar: M
Encoding: 77 77 44
Width: 875
Flags: HW
LayerCount: 2
Fore
SplineSet
125 0 m 1
 125 625 l 1
 250 625 l 1
 250 500 l 1
 375 500 l 1
 375 375 l 1
 500 375 l 1
 500 250 l 1
 375 250 l 1
 375 375 l 1
 250 375 l 1
 250 0 l 1
 125 0 l 1
625 0 m 1
 625 375 l 1
 500 375 l 1
 500 500 l 1
 625 500 l 1
 625 625 l 1
 750 625 l 1
 750 0 l 1
 625 0 l 1
EndSplineSet
EndChar

StartChar: N
Encoding: 78 78 45
Width: 875
Flags: HW
LayerCount: 2
Fore
SplineSet
125 0 m 1
 125 625 l 1
 250 625 l 1
 250 500 l 1
 375 500 l 1
 375 375 l 1
 500 375 l 1
 500 250 l 1
 625 250 l 1
 625 625 l 1
 750 625 l 1
 750 0 l 1
 625 0 l 1
 625 125 l 1
 500 125 l 1
 500 250 l 1
 375 250 l 1
 375 375 l 1
 250 375 l 1
 250 0 l 1
 125 0 l 1
EndSplineSet
EndChar

StartChar: O
Encoding: 79 79 46
Width: 750
Flags: HW
LayerCount: 2
Fore
SplineSet
250 0 m 1
 250 125 l 1
 125 125 l 1
 125 500 l 1
 250 500 l 1
 250 625 l 1
 500 625 l 1
 500 500 l 1
 625 500 l 1
 625 125 l 1
 500 125 l 1
 500 0 l 1
 250 0 l 1
250 130 m 1
 500 130 l 1
 500 495 l 1
 250 495 l 1
 250 130 l 1
EndSplineSet
EndChar

StartChar: P
Encoding: 80 80 47
Width: 750
Flags: HW
LayerCount: 2
Fore
SplineSet
125 0 m 1
 125 625 l 1
 500 625 l 1
 500 500 l 1
 625 500 l 1
 625 375 l 1
 500 375 l 1
 500 250 l 1
 250 250 l 1
 250 0 l 1
 125 0 l 1
250 375 m 1
 495 375 l 1
 495 500 l 1
 250 500 l 1
 250 375 l 1
EndSplineSet
EndChar

StartChar: Q
Encoding: 81 81 48
Width: 750
Flags: HW
LayerCount: 2
Fore
SplineSet
500 -125 m 1
 500 0 l 1
 250 0 l 1
 250 125 l 1
 125 125 l 1
 125 500 l 1
 250 500 l 1
 250 625 l 1
 500 625 l 1
 500 500 l 1
 625 500 l 1
 625 125 l 1
 500 125 l 1
 500 0 l 1
 625 0 l 1
 625 -125 l 1
 500 -125 l 1
250 130 m 1
 500 130 l 1
 500 495 l 1
 250 495 l 1
 250 130 l 1
EndSplineSet
EndChar

StartChar: R
Encoding: 82 82 49
Width: 750
Flags: HW
LayerCount: 2
Fore
SplineSet
125 0 m 1
 125 625 l 1
 500 625 l 1
 500 500 l 1
 625 500 l 1
 625 375 l 1
 500 375 l 1
 500 125 l 1
 625 125 l 1
 625 0 l 1
 500 0 l 1
 500 125 l 1
 375 125 l 1
 375 250 l 1
 250 250 l 1
 250 0 l 1
 125 0 l 1
250 375 m 1
 495 375 l 1
 495 500 l 1
 250 500 l 1
 250 375 l 1
EndSplineSet
EndChar

StartChar: S
Encoding: 83 83 50
Width: 750
Flags: HW
LayerCount: 2
Fore
SplineSet
250 500 m 1
 250 625 l 1
 625 625 l 1
 625 500 l 1
 250 500 l 1
500 125 m 1
 500 250 l 1
 250 250 l 1
 250 375 l 1
 125 375 l 1
 125 500 l 1
 250 500 l 1
 250 375 l 1
 500 375 l 1
 500 250 l 1
 625 250 l 1
 625 125 l 1
 500 125 l 1
125 0 m 1
 125 125 l 1
 500 125 l 1
 500 0 l 1
 125 0 l 1
EndSplineSet
EndChar

StartChar: T
Encoding: 84 84 51
Width: 625
Flags: HW
LayerCount: 2
Fore
SplineSet
250 0 m 1
 250 500 l 1
 125 500 l 1
 125 625 l 1
 500 625 l 1
 500 500 l 1
 375 500 l 1
 375 0 l 1
 250 0 l 1
EndSplineSet
EndChar

StartChar: U
Encoding: 85 85 52
Width: 750
Flags: HW
LayerCount: 2
Fore
SplineSet
250 0 m 1
 250 125 l 1
 125 125 l 1
 125 625 l 1
 250 625 l 1
 250 125 l 1
 500 125 l 1
 500 0 l 1
 250 0 l 1
500 125 m 1
 500 625 l 1
 625 625 l 1
 625 125 l 1
 500 125 l 1
EndSplineSet
EndChar

StartChar: V
Encoding: 86 86 53
Width: 875
Flags: HW
LayerCount: 2
Fore
SplineSet
375 0 m 1
 375 125 l 1
 250 125 l 1
 250 375 l 1
 125 375 l 1
 125 625 l 1
 250 625 l 1
 250 375 l 1
 375 375 l 1
 375 125 l 1
 500 125 l 1
 500 0 l 1
 375 0 l 1
625 375 m 1
 625 625 l 1
 750 625 l 1
 750 375 l 1
 625 375 l 1
500 125 m 1
 500 375 l 1
 625 375 l 1
 625 125 l 1
 500 125 l 1
EndSplineSet
EndChar

StartChar: W
Encoding: 87 87 54
Width: 875
Flags: HW
LayerCount: 2
Fore
SplineSet
250 0 m 1
 250 125 l 1
 125 125 l 1
 125 625 l 1
 250 625 l 1
 250 125 l 1
 375 125 l 1
 375 0 l 1
 250 0 l 1
625 125 m 1
 625 625 l 1
 750 625 l 1
 750 125 l 1
 625 125 l 1
500 0 m 1
 500 125 l 1
 375 125 l 1
 375 500 l 1
 500 500 l 1
 500 125 l 1
 625 125 l 1
 625 0 l 1
 500 0 l 1
EndSplineSet
EndChar

StartChar: X
Encoding: 88 88 55
Width: 875
Flags: HW
LayerCount: 2
Fore
SplineSet
625 0 m 1
 625 125 l 1
 500 125 l 1
 500 250 l 1
 375 250 l 1
 375 375 l 1
 250 375 l 1
 250 500 l 1
 125 500 l 1
 125 625 l 1
 250 625 l 1
 250 500 l 1
 375 500 l 1
 375 375 l 1
 500 375 l 1
 500 250 l 1
 625 250 l 1
 625 125 l 1
 750 125 l 1
 750 0 l 1
 625 0 l 1
500 375 m 1
 500 500 l 1
 625 500 l 1
 625 625 l 1
 750 625 l 1
 750 500 l 1
 625 500 l 1
 625 375 l 1
 500 375 l 1
250 125 m 1
 250 250 l 1
 375 250 l 1
 375 125 l 1
 250 125 l 1
125 0 m 1
 125 125 l 1
 250 125 l 1
 250 0 l 1
 125 0 l 1
EndSplineSet
EndChar

StartChar: Y
Encoding: 89 89 56
Width: 875
Flags: HW
LayerCount: 2
Fore
SplineSet
375 0 m 1
 375 375 l 1
 250 375 l 1
 250 500 l 1
 125 500 l 1
 125 625 l 1
 250 625 l 1
 250 500 l 1
 375 500 l 1
 375 375 l 1
 500 375 l 1
 500 0 l 1
 375 0 l 1
625 500 m 1
 625 625 l 1
 750 625 l 1
 750 500 l 1
 625 500 l 1
500 375 m 1
 500 500 l 1
 625 500 l 1
 625 375 l 1
 500 375 l 1
EndSplineSet
EndChar

StartChar: Z
Encoding: 90 90 57
Width: 625
Flags: HW
LayerCount: 2
Fore
SplineSet
375 375 m 1
 375 500 l 1
 125 500 l 1
 125 625 l 1
 500 625 l 1
 500 375 l 1
 375 375 l 1
250 250 m 1
 250 375 l 1
 375 375 l 1
 375 250 l 1
 250 250 l 1
125 0 m 1
 125 250 l 1
 250 250 l 1
 250 125 l 1
 500 125 l 1
 500 0 l 1
 125 0 l 1
EndSplineSet
EndChar

StartChar: bracketleft
Encoding: 91 91 58
Width: 500
Flags: HW
LayerCount: 2
Fore
SplineSet
125 0 m 1
 125 625 l 1
 375 625 l 1
 375 500 l 1
 250 500 l 1
 250 125 l 1
 375 125 l 1
 375 0 l 1
 125 0 l 1
EndSplineSet
EndChar

StartChar: backslash
Encoding: 92 92 59
Width: 625
Flags: HW
LayerCount: 2
Fore
SplineSet
375 0 m 1
 375 250 l 1
 250 250 l 1
 250 375 l 1
 125 375 l 1
 125 625 l 1
 250 625 l 1
 250 375 l 1
 375 375 l 1
 375 250 l 1
 500 250 l 1
 500 0 l 1
 375 0 l 1
EndSplineSet
EndChar

StartChar: bracketright
Encoding: 93 93 60
Width: 500
Flags: HW
LayerCount: 2
Fore
SplineSet
125 0 m 1
 125 125 l 1
 250 125 l 1
 250 500 l 1
 125 500 l 1
 125 625 l 1
 375 625 l 1
 375 0 l 1
 125 0 l 1
EndSplineSet
EndChar

StartChar: asciicircum
Encoding: 94 94 61
Width: 625
Flags: HW
LayerCount: 2
Fore
SplineSet
125 500 m 1
 125 625 l 1
 250 625 l 1
 250 750 l 1
 375 750 l 1
 375 625 l 1
 500 625 l 1
 500 500 l 1
 375 500 l 1
 375 625 l 1
 250 625 l 1
 250 500 l 1
 125 500 l 1
EndSplineSet
EndChar

StartChar: underscore
Encoding: 95 95 62
Width: 750
Flags: HW
LayerCount: 2
Fore
SplineSet
125 -125 m 1
 125 0 l 1
 625 0 l 1
 625 -125 l 1
 125 -125 l 1
EndSplineSet
EndChar
